<?xml version="1.0" encoding="UTF-8"?>
<svg xmlns="http://www.w3.org/2000/svg" id="Ebene_1" data-name="Ebene 1" viewBox="0 0 1104.12 254">
  <defs>
    <style>
      .cls-1 {
        fill: #fff;
      }
    </style>
  </defs>
  <g>
    <path class="cls-1" d="m684.45,120c0-13.69-4.26-26.38-11.53-36.83l-12.26,26.13c.9,3.45,1.37,7.04,1.37,10.7,0,11.26-4.38,21.84-12.34,29.8-3.53,3.53-7.58,6.36-11.97,8.41-.08.04-.15.07-.23.1-5.45,2.51-11.42,3.83-17.6,3.83s-12.19-1.33-17.66-3.86c-.06-.03-.11-.05-.17-.08-4.39-2.05-8.44-4.88-11.97-8.41-7.96-7.96-12.34-18.54-12.34-29.8,0-3.66.47-7.25,1.37-10.7l-12.26-26.13c-7.27,10.45-11.53,23.14-11.53,36.83,0,35.66,28.91,64.56,64.56,64.56s64.56-28.91,64.56-64.56h0Zm-27.58-20.23l10.85-23.13c-5.16-5.69-11.32-10.45-18.2-14.01l-9.53,20.32h0l-3.18,6.78-16.92,36.07-16.92-36.07-3.18-6.78h0l-9.53-20.32c-6.88,3.56-13.04,8.32-18.2,14.01l10.85,23.13,4.19,8.94,12.49,26.61,8.03,17.11c3.87,1.46,8.01,2.23,12.28,2.23s8.41-.77,12.28-2.23l8.03-17.11,12.49-26.61,4.19-8.94h0Z"></path>
    <path class="cls-1" d="m732.28,156.51l10.08-27.39h-5.48l-7.15,20.46-7.15-20.46h-5.86l10.08,27.39h5.48Zm24.25.17c1.36-.19,2.62-.45,3.78-.78v-4.72c-.99.38-2.07.68-3.25.89-1.18.22-2.33.32-3.44.32-1.95,0-3.4-.4-4.35-1.2-.95-.8-1.52-2.14-1.69-4.01h13.69v-1.64c0-7.71-3.16-11.56-9.47-11.56-3.17,0-5.58.98-7.23,2.95-1.65,1.97-2.47,4.84-2.47,8.62s.86,6.78,2.59,8.63c1.72,1.85,4.4,2.78,8.03,2.78,1.19,0,2.47-.1,3.82-.29h0Zm-1.96-17.04c.63.72,1.04,1.93,1.22,3.63h-8.22c.18-1.72.59-2.94,1.24-3.65.65-.71,1.63-1.06,2.95-1.06,1.24,0,2.18.36,2.81,1.08h0Zm16.51,16.87v-15.52c.94-.53,1.88-.91,2.83-1.14.95-.23,2.02-.34,3.21-.34.63,0,1.28.04,1.94.11v-5.17c-.41-.08-.88-.11-1.41-.11-1.22,0-2.35.2-3.39.59-1.04.39-2.22,1.08-3.54,2.07l-.23-2.55h-4.75v22.06h5.33Zm16.55,0v-16.39c1.37-.68,2.71-1.03,4.03-1.03,1.04,0,1.77.27,2.21.8.43.53.65,1.36.65,2.47v14.15h5.33v-15.1c0-.43-.03-.85-.08-1.26,1.39-.71,2.76-1.06,4.11-1.06,1.04,0,1.77.27,2.21.8.43.53.65,1.36.65,2.47v14.15h5.33v-15.1c0-1.77-.32-3.2-.95-4.28-.63-1.08-1.45-1.86-2.45-2.34-1-.48-2.05-.72-3.14-.72-1.19,0-2.36.21-3.5.63-1.14.42-2.31,1.05-3.5,1.88-.61-.89-1.38-1.53-2.3-1.92-.93-.39-1.88-.59-2.87-.59-1.04,0-2.06.18-3.06.53-1,.36-2.02.86-3.06,1.52l-.15-1.67h-4.75v22.06h5.33Zm48.76-11.03c0-7.66-3.33-11.49-10-11.49s-10,3.83-10,11.49,3.33,11.49,10,11.49,10-3.83,10-11.49h0Zm-13.52,5.17c-.7-1.01-1.05-2.74-1.05-5.17s.35-4.16,1.05-5.17c.7-1.01,1.87-1.52,3.52-1.52s2.82.51,3.52,1.52c.7,1.01,1.05,2.74,1.05,5.17s-.35,4.16-1.05,5.17c-.7,1.01-1.87,1.52-3.52,1.52s-2.82-.51-3.52-1.52h0Zm2.34-18.94v-4.94h-5.71v4.94h5.71Zm8.06,0v-4.94h-5.71v4.94h5.71Zm26.13,10.35c0-2.38-.82-4.03-2.47-4.94l4.75-.04v-3.88l-11.03.99h-.61c-6.42,0-9.62,2.5-9.62,7.49,0,2.74.91,4.73,2.74,5.97-.91.58-1.57,1.21-1.98,1.88-.41.67-.61,1.45-.61,2.34,0,1.45.54,2.55,1.64,3.31-2.23,1.19-3.35,2.78-3.35,4.75,0,2.13.87,3.71,2.62,4.74,1.75,1.03,4.42,1.54,8.03,1.54,2.89,0,5.22-.25,6.98-.74,1.76-.49,3.04-1.28,3.84-2.36.8-1.08,1.2-2.49,1.2-4.24,0-1.45-.29-2.61-.87-3.5-.58-.89-1.57-1.57-2.95-2.05-1.38-.48-3.28-.81-5.69-.99l-4.75-.38c-1.37-.1-2.05-.63-2.05-1.6,0-.61.25-1.12.76-1.52,1.14.28,2.48.42,4.03.42,6.26,0,9.4-2.4,9.4-7.19h0Zm-12.53,2.17c-.62-.51-.93-1.33-.93-2.47s.32-1.98.95-2.51c.63-.53,1.65-.8,3.04-.8s2.42.27,3.06.8c.65.53.97,1.37.97,2.51s-.32,1.97-.97,2.47c-.65.51-1.68.76-3.1.76s-2.4-.25-3.02-.76h0Zm-1.88,12.06c.66.13,1.42.23,2.28.3l4.75.38c1.6.13,2.68.34,3.23.65.56.3.84.85.84,1.64,0,.71-.19,1.26-.57,1.65-.38.39-1.04.67-1.98.84-.94.16-2.26.25-3.96.25-2.08,0-3.57-.24-4.47-.72-.9-.48-1.35-1.27-1.35-2.36s.41-1.91,1.22-2.62h0Zm33.64.4c1.36-.19,2.62-.45,3.78-.78v-4.72c-.99.38-2.07.68-3.25.89-1.18.22-2.33.32-3.44.32-1.95,0-3.4-.4-4.36-1.2-.95-.8-1.52-2.14-1.69-4.01h13.69v-1.64c0-7.71-3.16-11.56-9.47-11.56-3.17,0-5.58.98-7.23,2.95-1.65,1.97-2.47,4.84-2.47,8.62s.86,6.78,2.59,8.63c1.72,1.85,4.4,2.78,8.03,2.78,1.19,0,2.47-.1,3.82-.29h0Zm-1.96-17.04c.63.72,1.04,1.93,1.22,3.63h-8.22c.18-1.72.59-2.94,1.24-3.65.65-.71,1.63-1.06,2.95-1.06,1.24,0,2.18.36,2.81,1.08h0Zm16.58,16.87v-16.32c1.55-.74,3.04-1.1,4.49-1.1,1.14,0,1.97.27,2.49.8.52.53.78,1.38.78,2.55v14.07h5.33v-15.1c0-2.33-.61-4.14-1.84-5.42-1.23-1.28-2.94-1.92-5.12-1.92-1.06,0-2.12.17-3.18.51-1.05.34-2.17.88-3.37,1.62l-.15-1.75h-4.75v22.06h5.33Zm32.24-1.22c1.46-1.12,2.19-2.85,2.19-5.21,0-2-.49-3.55-1.46-4.64-.98-1.09-2.57-1.84-4.77-2.24l-2.85-.53c-1.47-.25-2.21-.96-2.21-2.13,0-.71.29-1.22.88-1.52.58-.3,1.53-.46,2.85-.46,1.14,0,2.28.11,3.4.32,1.13.22,2.16.51,3.1.89v-4.72c-2.23-.71-4.46-1.06-6.69-1.06-3.04,0-5.31.56-6.79,1.67-1.48,1.12-2.23,2.84-2.23,5.17,0,1.9.49,3.38,1.48,4.43.99,1.05,2.59,1.79,4.79,2.23l2.85.53c1.47.25,2.21.96,2.21,2.13,0,.79-.29,1.36-.88,1.71-.58.36-1.55.53-2.89.53-1.22,0-2.48-.11-3.78-.32-1.31-.22-2.44-.49-3.4-.82v4.68c1.19.33,2.43.58,3.73.76,1.29.18,2.53.27,3.73.27,3.04,0,5.29-.56,6.75-1.67h0Zm11.24,1.22l.15-1.75c1.22.79,2.29,1.34,3.23,1.65.94.32,1.93.48,2.97.48,2.74,0,4.83-.98,6.28-2.93,1.45-1.95,2.17-4.78,2.17-8.48s-.72-6.53-2.17-8.48c-1.45-1.95-3.54-2.93-6.28-2.93-.99,0-1.93.14-2.81.42-.89.28-1.88.76-2.97,1.45v-9.51l-5.33.46v29.63h4.75Zm8.35-16.01c.67.99,1.01,2.65,1.01,4.98s-.34,3.99-1.01,4.98c-.67.99-1.82,1.48-3.44,1.48-.68,0-1.37-.09-2.05-.27-.68-.18-1.45-.48-2.28-.91v-10.57c.84-.43,1.6-.74,2.28-.91.68-.18,1.37-.27,2.05-.27,1.62,0,2.77.49,3.44,1.48h0Zm24.5,16.18c1.36-.19,2.62-.45,3.78-.78v-4.72c-.99.38-2.07.68-3.25.89-1.18.22-2.33.32-3.44.32-1.95,0-3.4-.4-4.36-1.2-.95-.8-1.52-2.14-1.69-4.01h13.69v-1.64c0-7.71-3.16-11.56-9.47-11.56-3.17,0-5.58.98-7.23,2.95-1.65,1.97-2.47,4.84-2.47,8.62s.86,6.78,2.59,8.63c1.72,1.85,4.4,2.78,8.03,2.78,1.19,0,2.47-.1,3.82-.29h0Zm-1.96-17.04c.63.72,1.04,1.93,1.22,3.63h-8.22c.18-1.72.59-2.94,1.24-3.65.65-.71,1.63-1.06,2.95-1.06,1.24,0,2.18.36,2.81,1.08h0Zm16.96,16.87v-15.52c.94-.53,1.88-.91,2.83-1.14.95-.23,2.02-.34,3.21-.34.63,0,1.28.04,1.94.11v-5.17c-.41-.08-.88-.11-1.41-.11-1.22,0-2.35.2-3.39.59-1.04.39-2.22,1.08-3.54,2.07l-.23-2.55h-4.75v22.06h5.33Zm19.47-.13c1.06-.34,2.23-.91,3.5-1.69l.15,1.83h4.75v-14.45c0-2.87-.72-4.93-2.15-6.18-1.43-1.25-3.77-1.88-7.02-1.88-1.09,0-2.3.1-3.63.29-1.33.19-2.55.44-3.67.74v4.68c.96-.35,2.04-.62,3.23-.8,1.19-.18,2.36-.27,3.5-.27,1.55,0,2.68.27,3.39.82.71.55,1.06,1.41,1.06,2.61v1.9c-.91-.18-1.73-.3-2.45-.36-.72-.06-1.41-.1-2.07-.1-2.89,0-5.02.55-6.39,1.65-1.37,1.1-2.05,2.83-2.05,5.19,0,2.16.56,3.78,1.67,4.89,1.12,1.1,2.75,1.65,4.91,1.65,1.12,0,2.21-.17,3.27-.51h0Zm-3.67-8.31c.52-.41,1.36-.61,2.53-.61.56,0,1.21.04,1.96.13.75.09,1.51.21,2.3.36v3.23c-1.09.48-2.03.82-2.81,1.03-.79.2-1.51.3-2.17.3-1.72,0-2.59-.84-2.59-2.51,0-.89.26-1.53.78-1.94h0Zm31.86,7.99v-4.56c-.81.25-1.52.44-2.13.55-.61.11-1.23.17-1.86.17-1.06,0-1.8-.23-2.21-.7-.41-.47-.61-1.3-.61-2.49v-9.89h6.81v-4.68h-6.81v-5.33l-5.33.49v4.83h-4.34v4.68h4.34v10.5c0,2.56.53,4.41,1.6,5.55,1.07,1.14,2.8,1.71,5.21,1.71,1.77,0,3.55-.28,5.33-.84h0Zm17.34-1.29l.15,1.75h4.75v-22.06h-5.33v16.36c-1.45.71-2.85,1.07-4.22,1.07-1.09,0-1.89-.27-2.4-.8-.51-.53-.76-1.38-.76-2.55v-14.07h-5.33v15.1c0,2.31.6,4.11,1.81,5.4,1.2,1.29,2.86,1.94,4.96,1.94s4.15-.71,6.35-2.13h0Zm15.36,1.75v-16.32c1.55-.74,3.05-1.1,4.49-1.1,1.14,0,1.97.27,2.49.8.52.53.78,1.38.78,2.55v14.07h5.32v-15.1c0-2.33-.61-4.14-1.84-5.42-1.23-1.28-2.93-1.92-5.11-1.92-1.06,0-2.12.17-3.18.51-1.05.34-2.18.88-3.37,1.62l-.15-1.75h-4.75v22.06h5.32Zm36.9-14.45c0-2.38-.83-4.03-2.47-4.94l4.75-.04v-3.88l-11.03.99h-.61c-6.42,0-9.62,2.5-9.62,7.49,0,2.74.91,4.73,2.74,5.97-.92.58-1.58,1.21-1.98,1.88-.4.67-.61,1.45-.61,2.34,0,1.45.55,2.55,1.64,3.31-2.23,1.19-3.35,2.78-3.35,4.75,0,2.13.87,3.71,2.63,4.74,1.75,1.03,4.42,1.54,8.02,1.54,2.89,0,5.22-.25,6.98-.74,1.76-.49,3.04-1.28,3.84-2.36.8-1.08,1.2-2.49,1.2-4.24,0-1.45-.29-2.61-.88-3.5-.58-.89-1.57-1.57-2.94-2.05-1.38-.48-3.28-.81-5.69-.99l-4.75-.38c-1.37-.1-2.06-.63-2.06-1.6,0-.61.26-1.12.76-1.52,1.14.28,2.48.42,4.03.42,6.26,0,9.4-2.4,9.4-7.19h0Zm-12.53,2.17c-.62-.51-.93-1.33-.93-2.47s.32-1.98.95-2.51c.64-.53,1.65-.8,3.05-.8s2.41.27,3.06.8c.65.53.97,1.37.97,2.51s-.32,1.97-.97,2.47c-.64.51-1.68.76-3.1.76s-2.4-.25-3.02-.76h0Zm-1.88,12.06c.66.13,1.42.23,2.28.3l4.75.38c1.6.13,2.68.34,3.23.65.56.3.84.85.84,1.64,0,.71-.19,1.26-.57,1.65-.38.39-1.04.67-1.98.84-.94.16-2.25.25-3.95.25-2.08,0-3.57-.24-4.47-.72-.9-.48-1.35-1.27-1.35-2.36s.4-1.91,1.21-2.62h0Z"></path>
    <path class="cls-1" d="m729.17,110.91c3.07,0,5.55-.46,7.46-1.39,1.9-.93,3.29-2.4,4.16-4.41.88-2.02,1.31-4.65,1.31-7.89s-.44-5.88-1.31-7.89c-.87-2.02-2.26-3.49-4.16-4.41-1.9-.93-4.39-1.39-7.46-1.39h-10.31v27.39h10.31Zm-4.83-22.82h4.83c1.9,0,3.39.29,4.45.86,1.06.57,1.82,1.52,2.26,2.85.44,1.33.67,3.14.67,5.42s-.22,4.09-.67,5.42c-.44,1.33-1.2,2.28-2.26,2.85-1.07.57-2.55.86-4.45.86h-4.83v-18.26h0Zm36.08,22.99c1.36-.19,2.62-.45,3.78-.78v-4.72c-.99.38-2.07.68-3.25.89-1.18.22-2.33.32-3.44.32-1.95,0-3.4-.4-4.36-1.2-.95-.8-1.52-2.14-1.69-4.01h13.69v-1.64c0-7.71-3.16-11.56-9.47-11.56-3.17,0-5.58.98-7.23,2.95-1.65,1.97-2.47,4.84-2.47,8.62s.86,6.78,2.59,8.63c1.72,1.85,4.4,2.78,8.03,2.78,1.19,0,2.47-.1,3.82-.29h0Zm-1.96-17.04c.63.72,1.04,1.93,1.22,3.63h-8.22c.18-1.72.59-2.94,1.24-3.65.65-.71,1.63-1.06,2.95-1.06,1.24,0,2.18.36,2.81,1.08h0Zm23.92,15.12l.15,1.75h4.75v-22.06h-5.33v16.36c-1.45.71-2.85,1.07-4.22,1.07-1.09,0-1.89-.27-2.4-.8-.51-.53-.76-1.38-.76-2.55v-14.07h-5.33v15.1c0,2.31.6,4.11,1.81,5.4,1.2,1.29,2.86,1.94,4.96,1.94s4.15-.71,6.35-2.13h0Zm24.95,1.29v-4.56c-.81.25-1.52.44-2.13.55-.61.11-1.23.17-1.86.17-1.06,0-1.8-.23-2.21-.7-.41-.47-.61-1.3-.61-2.49v-9.89h6.81v-4.68h-6.81v-5.33l-5.33.49v4.83h-4.34v4.68h4.34v10.5c0,2.56.53,4.41,1.6,5.55,1.06,1.14,2.8,1.71,5.21,1.71,1.77,0,3.55-.28,5.33-.84h0Zm18.47-.76c1.46-1.12,2.19-2.85,2.19-5.21,0-2-.49-3.55-1.46-4.64-.98-1.09-2.57-1.84-4.77-2.24l-2.85-.53c-1.47-.25-2.21-.96-2.21-2.13,0-.71.29-1.22.88-1.52.58-.3,1.53-.46,2.85-.46,1.14,0,2.28.11,3.4.32,1.13.22,2.16.51,3.1.89v-4.72c-2.23-.71-4.46-1.06-6.69-1.06-3.04,0-5.31.56-6.79,1.67-1.48,1.12-2.23,2.84-2.23,5.17,0,1.9.49,3.38,1.48,4.43.99,1.05,2.59,1.79,4.79,2.23l2.85.53c1.47.25,2.21.96,2.21,2.13,0,.79-.29,1.36-.87,1.71-.58.36-1.55.53-2.89.53-1.22,0-2.48-.11-3.78-.32-1.31-.22-2.44-.49-3.4-.82v4.68c1.19.33,2.43.58,3.73.76,1.29.18,2.54.27,3.73.27,3.04,0,5.29-.56,6.75-1.67h0Zm17.71,1.58c.56-.06,1.17-.17,1.84-.32.67-.15,1.49-.37,2.45-.65v-4.87c-1.4.43-2.47.73-3.21.89-.75.17-1.48.25-2.19.25-1.93,0-3.34-.54-4.24-1.62-.9-1.08-1.35-2.77-1.35-5.08s.41-4.03,1.24-5.1c.82-1.06,2.14-1.6,3.94-1.6,1.95,0,3.88.34,5.78,1.03v-4.87c-1.09-.35-2.11-.6-3.04-.74-.94-.14-1.97-.21-3.08-.21-6.85,0-10.27,3.83-10.27,11.49,0,3.93.84,6.83,2.51,8.69,1.67,1.86,4.27,2.8,7.8,2.8.66,0,1.27-.03,1.83-.1h0Zm13.96-.36v-16.32c1.55-.74,3.04-1.1,4.49-1.1,1.14,0,1.97.27,2.49.8.52.53.78,1.38.78,2.55v14.07h5.33v-15.1c0-2.33-.61-4.14-1.84-5.42-1.23-1.28-2.94-1.92-5.12-1.92-1.95,0-3.99.63-6.12,1.9v-9.55l-5.33.46v29.63h5.33Zm31.7.17c1.36-.19,2.62-.45,3.78-.78v-4.72c-.99.38-2.07.68-3.25.89-1.18.22-2.33.32-3.44.32-1.95,0-3.4-.4-4.35-1.2-.95-.8-1.52-2.14-1.69-4.01h13.69v-1.64c0-7.71-3.16-11.56-9.47-11.56-3.17,0-5.58.98-7.23,2.95-1.65,1.97-2.47,4.84-2.47,8.62s.86,6.78,2.59,8.63c1.72,1.85,4.4,2.78,8.03,2.78,1.19,0,2.47-.1,3.82-.29h0Zm-1.96-17.04c.63.72,1.04,1.93,1.22,3.63h-8.22c.18-1.72.59-2.94,1.24-3.65.65-.71,1.63-1.06,2.95-1.06,1.24,0,2.18.36,2.81,1.08h0Z"></path>
  </g>
  <path class="cls-1" d="m54.31,117.77l-18.21-4.74v-5.32l18.21,4.74v5.31Zm-24.21-10.05l-18.2,4.74v5.31l18.2-4.74v-5.32Zm24.21,16.75l-18.21-4.73v5.31l18.21,4.73v-5.31Zm-24.21-4.73l-18.2,4.73v5.32l18.2-4.73v-5.31Zm24.21,16.75l-18.21-4.74v5.32l18.21,4.74v-5.32Zm-24.21-4.74l-18.2,4.74v5.31l18.2-4.74v-5.31Zm22.94,77.07l.03-19.21c12.04,0,16.46-.61,18.56,14.16h1.27v-16.43h-32.79v2.27h5.68v42.28h-6.26v2.23h33.8v-17.28h-1.7c-1.68,13.06-4.99,15.05-14.28,15.05h-4.3v-20.54h2.49c4.17.11,6.54,2.54,7.39,9.7h1.53v-21.24s-1.52,0-1.52,0c0,.11-.3,9.13-7.58,9h-2.31Zm-13.4.85h-18.5v2.09h6.33v15.2c-1.07,3.86-6.76,5.47-8.45,5.47-11.82,0-10.97-17.29-10.97-21.92,0-4.23-.42-21.93,10.97-21.93,8.03,0,12.25,7.99,13.95,15.17h1.28c0-2.95.05-17.03.02-17,.03-.11-5.5,3.97-5.52,3.91.13-.03-2.53-3.79-9.72-3.79C5.07,186.89-.04,200.81,0,210.52c.06,8.88,4.16,24.02,19.02,24.02,4.67,0,7.96-2.38,9.72-5.07.02-.06,5.89,4.64,5.91,4.65v-22.36h4.99v-2.09Zm217.88,7.17v17.28h-42.31v-2.25h5.42s-4.88-12.5-4.88-12.47h-15.53s-2.92,7.56-2.75,9.67c.26,2.91,4.44,2.79,5.07,2.79v2.26h-11.41c-18.1.02-1.92-21.43-15.73-22.57-.42,0-7.99,0-7.96,0v20.33h5.97v2.25h-19.14v-2.25h5.97v-42.27h-5.97v-2.28h23.33c8.22.31,13.14,3.82,13.14,10.9,0,10.08-10.61,12.28-10.61,12.28-.1.1,4.09.27,6.53,2.74,2.19,2.19,2.35,6.98,2.35,9.07v8.01c0,.4-.16,1.54,2.03,1.43,2.37-.46,3.48-4.15,3.45-4.03.03-.12,14.43-41.71,14.37-41.69h2.54l17.26,45.81h4.69v-42.27h-5.91v-2.28h19.43v2.28h-5.91v42.27h.56c9.29,0,12.6-1.96,14.28-15.02h1.7Zm-74.4-17.71c0-2.1-.23-8.68-5.93-9.54h-9.7v19.59h7.59c5.93,0,8.05-4.98,8.05-10.05Zm32.09,18.12l-7.19-20.22-6.75,20.22h13.94Zm-83.94-27.66c12.04,0,16.49-.58,18.59,14.19h1.27v-16.43h-47.81v2.24h1.25c1.68,0,5.69.13,5.92,3.65h0v26.97l-22.37-32.86h-12.18v2.24h2.02c2.4,0,5.77.11,5.92,3.65v34.55c0,3.37-5.05,4.65-7.16,4.65h-.02v1.68h16.48v-1.68c-2.11,0-7.19-1.28-7.19-4.65l.06-30.42c8.86,12.65,25.57,36.77,25.72,36.75h.84v-40.88c.23-3.53,4.24-3.65,5.92-3.65h5.49v42.31h-6.26v2.23h33.8v-17.28h-1.7c-1.68,13.06-4.99,15.05-14.28,15.05h-4.3v-20.54h2.49c4.17.11,6.54,2.54,7.39,9.7h1.54v-21.24s-1.52,0-1.52,0c0,.11-.3,9.13-7.58,9h-2.31v-19.24Zm147.5,0v-2.28h-19.08v2.28h5.99l.02,42.25h-6.01v2.28h19.08v-2.28h-5.99v-42.25h5.99Zm.49-31.11v13.82H.38v-71.9s15.42-4.01,15.42-4.01c-2.73-4.08-3.56-9.6-1.52-12.74,1.86-2.85,5.73-5.37,10.49-5.27.4-.67.88-1.28,1.44-1.81,1.77-1.67,4.18-2.51,6.98-2.42,4.48.14,9.55,2.63,13.85,6.72l6.37-10.18s-.4-.38-.95-.83l-.43-.4c-1.35-1.12-2.57-2.78-2.05-4.86.11-.44,1.08-3.27,6.69-3.55l4.91-.53c3.93-.38,6.76-2.57,6.71-5.13-.02-.85-.55-1.74-1.29-2.11-.45-.23-.7-.32-1.2-.32-.91.05-3.65,1.9-4.67,2.58-2.55,1.69-4.78,2.95-7.56,2.95-3.77,0-6.82-2.66-6.82-6.19,0-1.07.28-2.11.81-3.03l.18-.28c-.89-.9-1.75-2.14-2.03-3.67-.24-1.3-.15-3.29,1.66-5.39,1.91-2.24,4.37-5.4,6.4-9.98l.08-.16,1.66-3.12c.41-.63,1.01-1.28,1.77-1.91h-.01c1.27-2.66,3.05-5.53,4.88-7.89,1.62-2.07,3.86-3.76,5.45-4.82,1.86-1.22,4.14-2.26,6.44-2.93,6.95-2,15.69-.46,23.37,4.12,5.79,3.45,10.25,9.41,12.52,16.42l.36-1.3c2.89-9.17,10.6-15.09,19.66-15.09h139.51l-1.65,3.64c-4.47,9.82-12.25,14.8-23.14,14.8h-1.67c-4.49,9.45-12.14,14.27-22.78,14.31-4.52,9.28-12.16,14-22.74,14h-41.73c.28,1.09.43,2.35.43,3.78,0,1.07-.16,2.1-.43,3.09,3.17.23,7.25.56,11.24.88,6.1.49,12.42.99,15.38,1.15,1.49.08,2.88.15,4.22.22,6.42.32,11.5.56,18.66,1.75,10.31,1.71,18.78,6.39,25.18,13.92,2.39,2.82,4.62,5.96,6.81,9.59,3.15,5.22,5.62,10.91,8.02,16.41l.66,1.51c3.12,8.24,5.71,14.91,8.29,19.99,5.48-2.62,12.37-1.11,15.22,3.55.61.98,1.11,1.87,1.6,2.73,1.2,2.12,2.23,3.95,4.37,6.31l2.95,3.26-4.29.97c-1.89.43-3.65.63-5.29.63-12.82,0-18.78-12.49-25.49-29.92v25.2c.38,5.5-.72,7.5-8.99,10.93l-.08.03-6.6,2.49h51.64Zm-22.49-21.7c3.34,5.14,6.95,7.75,11.89,7.81-.8-1.2-1.44-2.33-2.1-3.49-.46-.82-.94-1.66-1.5-2.57-1.39-2.26-5.25-3-8.29-1.75Zm-56.96-61.51c8.98,13.86,14.25,15.92,30.61,17.99-1.27-1.86-2.56-3.56-3.91-5.15-5.59-6.58-13.03-10.67-22.1-12.18-1.63-.27-3.15-.49-4.6-.67Zm14.57-29.27h-39.41c-1.78,3.67-4.06,6.62-6.82,8.85h29.32c7.76,0,13.21-2.83,16.9-8.85Zm22.81-14.31h-39.44c-1.81,3.82-4.14,6.87-6.97,9.17h29.32c7.9,0,13.4-2.93,17.09-9.17Zm-21.83-5.14h29.32c7.46,0,12.78-2.61,16.46-8.15h-39.31c-1.74,3.35-3.9,6.06-6.47,8.15Zm-150.04-5.33c1.68-.33,3.55-.52,5.62-.52,1.23,0,2.5.07,3.8.2l11.14-6.88c-3.7-.85-7.31-.87-10.41.03-1.78.51-3.62,1.34-5.03,2.28-1.8,1.19-3.3,2.5-4.23,3.69-.3.39-.6.8-.9,1.21Zm-10.52,45.49c1.08.71,5.12,1.67,9.06,1.33,10.36-.87,15.45-7.07,15.36-11.26h0c-.12-2.38-.57-4.72-.98-6.78-.36-1.83-.64-3.27-.64-4.47,0-3.51,2.61-6.42,6.32-7.44l-1.15-6.57,1.56-.9c4.5-2.59,7.31-7.93,6.54-12.42v-.08h-.01s-.08-.43-.35-.94l-14.6,9.02-.9-.11c-1.4-.18-2.77-.27-4.07-.27-6.94,0-10.32,2.55-11.07,3.56l-.72,1.36c-1.32,5.56,5.16,2.92,6.82,4.28,1.5,1.23-1.33,3.83-1.33,3.83-.73.72-1.27,1.57-2.47,1.57s-2.15-.69-2.15-1.57c0-1.33-1.09-2.32-2.34-2.41-.87-.07-1.43.24-1.9.71-1.56,2.54-3.14,4.52-4.49,6.1-.39.45-.56.83-.51,1.11.12.65,1.11,1.51,1.78,1.89l2.56,1.43-3.14,4.23c-.05.11-.07.24-.07.37,0,.59.73,1.25,1.7,1.25,1.23,0,2.75-1.01,4.69-2.3,2.79-1.85,5.26-3.43,7.47-3.43,1.87,0,3.51.7,4.82,2.16,1.35,1.5,2.26,3.9,2.26,5.49,0,4.73-4.69,8.25-10.24,8.94l-2.35.22c-2.31-.07-3.82-.12-3.91-.13h-.2c-.15-.02-.27,0-.43-.02-1.09-.14-1.42.5-1.52.97-.12.57.31,1.06.6,1.26Zm-33.53,28.26l11.84-3.08,32.71,8.51v5.88c3.28-.57,6.24-1.9,7.95-3.63l4.11-4.18.3,5.85c.03.6.09,2.55.09,3.21,0,3.08-.27,5.2-.66,7.49,8.07-.66,10.51-4.17,12.76-11.51l.56-1.82h1.98c4.02,0,7.29-3.14,7.29-7,0-2.29-1.18-4.45-3.16-5.77l-5.24-3.5,6.19-1.16c5.22-.98,10.63-5.6,10.63-11.64,0-5.3-2.44-6.95-6.42-9.21l-1.92-1.09.79-2.07c.96-2.52,2.78-7.82,4.02-12.99l-.06-.02.36-1.29c.71-3.21,1.14-6.27.94-8.45-.7-7.73-4.67-15-10.24-18.98.49,5.75-2.56,11.92-7.65,15.59l1.52,8.75h-3.06c-2.49,0-4.16,1.39-4.16,2.7,0,.7.26,2.05.54,3.48.42,2.14.94,4.8,1.07,7.57v.24c-.17,10.16-10.56,15.66-20.55,16.08-.65.05-1.68-.02-2.09-.02-1.04,0-2.01-.27-3.27-.44l-7.85,12.43c1.59,2.15,2.38,3.46,3.51,5.52l-3.31,4.64c-1.6-2.94-3.58-6.54-6.15-9.31-3.6-3.87-8.05-6.34-11.61-6.45-1.42-.04-2.52.3-3.27,1.01-.43.41-.73.92-.96,1.61l-.69,2.11-2.19-.38c-3.4-.59-6.12.99-7.32,2.82-.73,1.12-.22,5.75,2.67,8.51Zm36.72,63.51l-24.88-6.48-24.88,6.48h49.76Zm2.69-54.1l-27.57-7.17-27.57,7.17v49.49l27.57-7.19,27.57,7.19v-49.49Zm23.99,34.65h.87c.65,0,1.18-.55,1.18-1.23v-20.08c-2.95,1.67-6.85,2.55-12.19,2.55h-3.05l.51-3c.09-.55.18-1.07.27-1.56.4-2.28.71-4.04.81-6.4-2.34,1.15-4.91,1.83-7.26,2.17v47h6.63c-1.84-6.05-1.56-10.87.84-14.34,2.25-3.25,6.4-5.11,11.38-5.11Zm62.83,2.21h.08s9.65,1.81,9.65,1.81l5.91-6.38c2.01-2.35,2.19-3.61.82-5.57l-.1-.14-11.65-19.25c-3.4.78-5.9,1.58-5.95,1.6l-.07.02c-2.33.68-4.53,1.39-6.67,2.08-8.27,2.66-16.1,5.22-28.37,5.12-1.19,5.51-2.6,16.04.53,20.85l1.62,2.5-2.71,1.24c-1.96.9-2.32,1.84-2.38,2.04.08,2.3-.1,5.55-2.35,7.9-2.05,2.13-5.16,2.97-9.55,3.26l-.25.18h37.27c-1.3-6.6.68-10.71,2.73-13.06,2.78-3.19,7.28-4.83,11.45-4.19Zm14.14,17.25l19.65-20.77c1.82-1.89,2.39-3.85,1.7-5.84-.76-2.25-3.48-7.76-5.66-12.19-1.19-2.42-2.26-4.59-3.02-6.21-5.69-3.35-11.04-3.28-11.08-3.27-1.78,0-3.72.19-5.62.47l10.63,17.55c3.57,5.18,1.02,9.23-1.22,11.83l-.06.07-7.66,8.28h-1.36l-.25-.04-10.99-2.04c-2.03-.3-4.89.35-6.76,2.49-1.92,2.2-2.37,5.53-1.34,9.68h23.05Zm44.09-11.96c1.24-3.19,3.86-5.39,7.21-6.06l10.59-2.37-.89-8.83c-.49-2.25-1.14-3.23-3.77-3.44-20.54-1.66-30.18-4.49-36.53-7.61,2.35,4.78,4.7,9.58,5.51,11.99,1.33,3.85.32,7.79-2.85,11.06l-16.28,17.22h38.33c-2.22-4.15-2.71-8.38-1.32-11.96Zm7.39,11.94l19.25-7.27c2.06-.86,4.86-2.1,5.61-3.09.3-.4.31-.95.17-2.8v-.19s0-37.73,0-37.73c-1.31-2.91-2.7-5.79-4.23-8.52-22.93-2.73-28.83-5.1-40.57-24.23-2.27-.16-4.53-.27-7.01-.39-1.34-.07-2.75-.13-4.24-.21-3.03-.17-9.38-.67-15.51-1.16-5.11-.41-10.38-.83-13.64-1.04-2.2,2.33-5.33,3.79-8.82,3.79-2.85,0-4.97-.86-8.79-2.52l-2.27-1,3.91-3.5.28.13c3.61,1.57,5.04,2.12,6.87,2.12,4.01,0,7.27-3.17,7.27-7.06,0-3.03-.79-3.75-.83-3.78h-14.12v-.02h-5.03c.16,0,1.08-2.38,1.16-2.56.1-.21.98-2.54,1.21-2.54h2.65v-.02h15.79c7.76,0,13.21-2.83,16.9-8.85h-24.99v-.02h-5.38c.16,0,1.08-2.38,1.16-2.56.1-.21.98-2.54,1.22-2.54h3v-.02h30.71c7.9,0,13.4-2.93,17.1-9.17h-41.61c-1.69-.01-3.38-.01-5.07-.01.16,0,1.08-2.38,1.16-2.56.1-.21.99-2.54,1.22-2.54h2.69v-.03h49.09c7.45,0,12.76-2.62,16.45-8.15h-85.92c-6.75,0-12.53,4.49-14.74,11.45l-4.84,17.37c-1.12,5.05-2.79,10.08-3.75,12.81,3.44,2.13,7.15,5.37,7.15,12.58s-4.89,12.72-10.53,15.31c1.36,1.98,2.11,4.32,2.11,6.76,0,6.09-4.61,11.15-10.61,12.01-.8,2.32-1.72,4.37-2.87,6.13v24.97c0,3.51-2.84,6.37-6.33,6.37h-.87c-1.55,0-5.33.28-7.15,2.9-1.54,2.22-1.5,5.91.11,10.72,3.56.97,9.24.16,11.85-3.44l.77-1.06h1.31c4.36,0,9.05-.21,10.58-1.8.45-.47,1.04-1.43.92-4.28-.01-.36-.02-3.09,3.08-5.41-3.5-8.8.05-22.83.5-24.54l.52-1.97,2.04.06c12.59.37,20.08-2.04,28.74-4.83,2.16-.7,4.39-1.41,6.78-2.11.76-.25,10.65-3.35,18.43-3.35.25,0,7.48-.12,14.78,4.61l.25.16.11-.04s.04.1.07.15h.02c6.76,4.39,13.15,8.53,40.9,10.77,6.21.51,7.77,4.61,8.41,7.64l.04.27,1.37,13.51-15.15,3.38c-1.61.31-2.83,1.33-3.43,2.88-1.04,2.69-.11,6.4,2.49,9.92l.11.16Z"></path>
  <rect class="cls-1" x="417.22" width="3" height="254"></rect>
</svg>
