<?xml version="1.0" encoding="UTF-8"?>
<svg xmlns="http://www.w3.org/2000/svg" id="Ebene_2" viewBox="0 0 141.32 32">
  <defs>
    <style>.cls-1{fill:#fff;}</style>
  </defs>
  <g id="Ebene_1-2">
    <g id="BMW">
      <path id="W" class="cls-1" d="m133.07,9.21c.22.24.53.61.71.84l3.24-2.06c-.16-.22-.42-.54-.61-.76l-2.05,1.35-.14.12.1-.15.9-1.81-.64-.64-1.81.9-.15.1.12-.14,1.35-2.05c-.24-.21-.47-.39-.76-.61l-2.06,3.24c.26.2.6.5.82.7l1.95-1,.12-.09-.09.12-1,1.94Z"></path>
      <path id="M" class="cls-1" d="m125.72,5.11l.88-1.98.06-.18-.02.19.09,2.65c.31.03.63.08.95.12l-.14-3.92c-.44-.05-.88-.08-1.33-.1l-.87,2.16-.03.16-.03-.16-.87-2.16c-.44.02-.88.06-1.33.1l-.14,3.92c.32-.06.64-.09.95-.12l.09-2.65-.02-.19.06.18.88,1.98s.81,0,.81,0Z"></path>
      <path id="B_22d" class="cls-1" d="m118.57,8.24c.51-.54.8-1.17.29-1.76-.28-.32-.74-.4-1.14-.24l-.04.02v-.04c.07-.15.1-.64-.31-.98-.21-.16-.46-.23-.71-.2-.48.05-.85.38-1.85,1.5-.3.34-.74.87-1.02,1.22l2.77,2.62c.91-1.02,1.29-1.4,2.01-2.15Zm-3.61-.65c.55-.68,1.15-1.3,1.42-1.54.08-.08.18-.15.29-.19.18-.05.37.08.41.26.05.19-.08.37-.21.51-.29.33-1.37,1.46-1.37,1.46l-.55-.5Zm1.08,1.03s1.05-1.11,1.39-1.47c.13-.14.23-.23.32-.27.12-.06.25-.08.38,0,.11.08.17.22.14.35-.04.16-.16.31-.27.42-.14.16-1.39,1.49-1.39,1.5l-.56-.54Z"></path>
      <path class="cls-1" d="m125.32,0c-8.83,0-16,7.16-16,16s7.16,16,16,16,16-7.16,16-16S134.15,0,125.32,0h0Zm14.96,16c0,8.26-6.7,14.96-14.96,14.96s-14.96-6.7-14.96-14.96,6.7-14.96,14.96-14.96,14.96,6.7,14.96,14.96Z"></path>
      <path class="cls-1" d="m115.83,16h0c0,5.24,4.24,9.49,9.49,9.49h0c5.24,0,9.49-4.25,9.49-9.49h0c0-5.24-4.24-9.49-9.49-9.49h0c-5.24,0-9.49,4.25-9.49,9.49Zm.53,0c0-4.95,4.03-8.96,8.96-8.96h0v8.96h8.96c0,4.95-4.03,8.96-8.96,8.96v-8.96h-8.96Z"></path>
    </g>
    <g id="BMW_Group_Next">
      <path class="cls-1" d="m.47,14.65h6.02c1.92,0,3.09-.33,3.94-1.04.89-.71,1.32-1.84,1.32-3.23,0-.91-.25-1.69-.6-2.19-.35-.47-.71-.8-1.15-1.11.22-.35.51-.82.78-1.28.4-.73.66-1.38.66-2.3,0-1.19-.53-2.21-1.4-2.81-.77-.53-1.74-.69-3.24-.69H.47v14.65H.47Zm2.34-2.22v-4.11h3.85c.89,0,1.44.08,1.88.35.58.4.82.95.82,1.71,0,.68-.18,1.19-.6,1.53-.42.37-1.04.53-2.23.53h-3.72Zm0-6.33v-3.88h3.77c.86,0,1.46.04,1.84.27.44.25.62.66.62,1.24s-.2.99-.47,1.48c-.18.29-.37.62-.55.89H2.81Z"></path>
      <polygon class="cls-1" points="15.73 14.65 15.73 3.52 19.17 11.73 21.32 11.73 24.76 3.52 24.76 14.65 27.07 14.65 27.07 0 23.97 0 20.27 8.83 16.56 0 13.42 0 13.42 14.65 15.73 14.65"></polygon>
      <polygon class="cls-1" points="34.12 14.65 36.54 5.49 38.98 14.65 42.06 14.65 44.93 0 42.56 0 40.32 11.59 37.81 2.21 35.3 2.21 32.8 11.59 30.55 0 28.14 0 31.01 14.65 34.12 14.65"></polygon>
      <path class="cls-1" d="m10.89,31.51v-7.69h-2.33v5.77c-.53.06-1.53.18-2.48.18-1.65,0-2.61-.4-3.12-1.46-.42-.86-.56-2.12-.56-3.83s.16-3.03.58-3.9c.55-1.15,1.38-1.59,3.07-1.59.53,0,1.11.08,1.71.2.91.18,1.86.39,2.66.58v-2.3c-.6-.16-1.44-.35-2.33-.53-.71-.13-1.51-.25-2.28-.25-2.7,0-3.94,1.01-4.76,2.39-.77,1.31-1.04,3.06-1.04,5.45s.29,3.96.95,5.11c.8,1.38,1.97,2.37,4.78,2.37,1.69,0,3.77-.25,5.16-.49h0Z"></path>
      <path class="cls-1" d="m14.97,31.66v-5.34h3.43l3.14,5.34h2.74l-3.36-5.69c.37-.39.97-1.07,1.44-1.63.76-.93,1.22-1.84,1.22-3.16s-.47-2.46-1.3-3.17c-.93-.8-2.02-.99-3.81-.99h-5.86v14.65h2.35Zm0-7.59v-4.8h3.26c1.24,0,1.86.09,2.3.39.51.35.68.86.68,1.53,0,.78-.33,1.34-.76,1.88-.25.31-.58.7-.86.99h-4.62Z"></path>
      <path class="cls-1" d="m30.65,16.7c-2.88,0-4.21.93-5.13,2.48-.76,1.28-.99,3.25-.99,5.2,0,2.28.35,4.18,1.11,5.4.89,1.44,2.15,2.21,5.01,2.21,2.48,0,3.81-.68,4.83-2.17.87-1.24,1.26-3.23,1.26-5.44s-.31-4.18-1.26-5.53c-1.02-1.46-2.34-2.15-4.84-2.15h0Zm0,2.25c1.32,0,2.35.33,2.97,1.42.56.95.73,2.45.73,4.02s-.18,3.28-.93,4.25c-.68.87-1.61,1.11-2.77,1.11-1.32,0-2.43-.22-3.07-1.32-.51-.91-.66-2.48-.66-4.04s.13-3.1.64-4.02c.64-1.18,1.77-1.43,3.09-1.43h0Z"></path>
      <path class="cls-1" d="m38.26,17.03v9.01c0,2.08.24,3.57,1.22,4.62.97,1.07,2.25,1.34,4.23,1.34,1.86,0,3.17-.31,4.16-1.3,1.04-1.04,1.28-2.46,1.28-4.66v-9.01h-2.35v9.07c0,1.53-.09,2.45-.73,3.05-.55.49-1.38.6-2.35.6s-1.84-.11-2.37-.62c-.64-.62-.73-1.53-.73-3.03v-9.07h-2.35Z"></path>
      <path class="cls-1" d="m53.21,31.66v-5.24c1.53,0,2.83,0,3.65-.06,1.36-.08,2.46-.37,3.28-1.2.86-.89,1.19-2.15,1.19-3.56s-.37-2.59-1.15-3.4c-.82-.84-1.86-1.19-3.48-1.19h-5.84v14.65h2.35Zm0-7.49v-4.89h3.25c.93,0,1.5.09,1.9.51.4.4.58,1.03.58,1.82s-.09,1.4-.49,1.82c-.39.47-.95.62-1.82.68-.89.06-2.12.06-3.41.06h0Z"></path>
    </g>
  </g>
</svg>
