<?xml version="1.0" encoding="UTF-8"?>
<svg xmlns="http://www.w3.org/2000/svg" id="Ebene_2" viewBox="0 0 61.02 32">
  <defs>
    <style>.cls-1{fill:#fff;}</style>
  </defs>
  <g id="Ebene_1-2">
    <path class="cls-1" d="M.06,0V3.65H26.63l-7.96,15.65h5.26l1.22-2.56h8.91l1.48,2.56h5.12l-7.96-15.65h26.71V0H.06ZM.06,6.07v13.22c-.03,.06,14.77,.06,14.83,0,4.36,.06,4.36-4.78,4.31-4.85,.08-.03,.05-3.39,0-3.38,.04-.07,.39-4.95-4.99-4.99H.06Zm40.99,0v13.22h4.59v-4.72h2.43l5.8,4.72h7.15l-9.04-6.62,8.64-6.6h-6.87l-5.66,4.72h-2.43V6.07h-4.6Zm-11.32,.8l2.84,6.21h-5.81l2.97-6.21ZM4.51,9.85H13.01c1.45-.07,1.64,.76,1.61,1.88,.03,0,.03,1.09,0,1.76,.03,1.01-.32,2.17-1.22,2.15,0,.02-5.41,.02-8.9,0-.03,.03,.05-5.85,0-5.79Zm-1.2,10.79C-.24,20.64,0,24.2,0,26.32s-.26,5.68,3.31,5.68c1.02,0,2.05-.15,3.01-.46v-5.47H3.15v.83h2.2v3.96c-.51,.2-1.21,.32-2.04,.32-2.37,0-2.33-2.11-2.33-4.86s-.03-4.86,2.33-4.86c1.53,0,2.14,.76,2.14,2.19h.97c.05-2.13-1.02-3.02-3.12-3.02h0Zm35.13,.21v4.05h-.03c-.47-.6-1.15-.92-1.84-.92-2.35,0-2.35,2.5-2.35,3.97,0,1.78,.12,3.98,2.33,3.98,.89,0,1.46-.38,1.93-1.11h.03s.04,.97,.04,.97h.89c-.05-.26-.09-.76-.09-1.51v-9.42h-.91Zm2.78,0v10.93h.91v-4.8c0-1.72,.83-2.26,1.65-2.26,1.06,0,1.41,.83,1.41,1.72v5.35h.91v-5.39c0-1-.2-2.41-2.08-2.41-.82,0-1.41,.45-1.84,1.09h-.03v-4.22h-.91Zm13.64,0v1.15h1.13v-1.15h-1.13Zm4.61,1.32l-.91,.39v1.57h-1.23v.73h1.23v5.47c0,.94,.37,1.48,1.59,1.48,.29,0,.59-.02,.86-.05v-.79c-.2,.03-.41,.04-.71,.04-.73,0-.84-.25-.84-1.26v-4.9h1.54v-.73h-1.55v-1.96h0Zm-48.58,1.81c-1.71,0-2.63,1.02-2.63,3.23v1.87c0,2.31,1.32,2.84,2.63,2.84,1.53,0,2.54-.63,2.64-2.48h-.96c.02,1.02-.56,1.75-1.68,1.75-1.43,0-1.73-1.41-1.73-2.47v-.59h4.36c0-2.26,0-4.16-2.64-4.16h0Zm6.52,0c-1.33,0-2.3,.5-2.3,1.9,0,2.53,3.43,2.02,3.43,4.01,0,.85-.43,1.34-1.31,1.34-1.16,0-1.4-.69-1.4-1.73h-.93c-.02,1.62,.63,2.42,2.28,2.42,1.43,0,2.26-.73,2.25-2.17,0-2.56-3.43-2.03-3.43-3.95,0-.68,.51-1.11,1.16-1.11,1.03,0,1.29,.51,1.33,1.48h.9c0-1.14-.48-2.19-1.99-2.19h0Zm13.15,0c-.82,0-1.41,.45-1.84,1.09h-.03v-.94h-.91v7.64h.91v-4.8c0-1.72,.83-2.26,1.65-2.26,1.06,0,1.41,.83,1.41,1.72v5.35h.91v-5.39c0-1-.19-2.41-2.08-2.41h0Zm19.81,0c-1.71,0-2.63,1.02-2.63,3.23v1.87c0,2.31,1.32,2.84,2.63,2.84,1.53,0,2.53-.63,2.63-2.48h-.96c.02,1.02-.55,1.75-1.67,1.75-1.43,0-1.73-1.41-1.73-2.47v-.59h4.36c0-2.26,0-4.16-2.63-4.16h0Zm-29.26,.15v5.41c0,1.24,.44,2.39,2.01,2.39,.85,0,1.39-.34,1.92-.99h.03v.85h.79v-7.64h-.91v5.39c0,.53-.44,1.67-1.66,1.67-1.32,0-1.28-1.61-1.28-1.82v-5.25h-.9Zm33.84,0v7.64h.91v-7.64h-.91Zm-44.08,.57c1.45,0,1.73,1.02,1.73,2.72h-3.46c0-1.7,.28-2.72,1.73-2.72Zm39.49,0c1.45,0,1.72,1.02,1.72,2.72h-3.45c0-1.7,.28-2.72,1.73-2.72h0Zm-13.62,0c1.71,0,1.7,2.12,1.7,2.57v1.36c0,1.86-.81,2.55-1.67,2.55-.98,0-1.66-.38-1.66-3.22,0-1.78,0-3.26,1.63-3.26h0Z"></path>
  </g>
</svg>
