<?xml version="1.0" encoding="UTF-8"?>
<svg xmlns="http://www.w3.org/2000/svg" id="Ebene_2" viewBox="0 0 122.08 32.84">
  <defs>
    <style>.cls-1{fill:#fff;}</style>
  </defs>
  <g id="Layer_1">
    <g>
      <path class="cls-1" d="M18.14,.09C17.57,.03,17,0,16.42,0,7.35,0,0,7.36,0,16.43c0,9.07,7.36,16.42,16.43,16.42,9.07,0,16.42-7.36,16.42-16.43,0-8.49-6.44-15.46-14.7-16.32ZM1.14,18.99C.08,12.65,3.03,6.56,8.14,3.33c3.75,2.87,5.32,8.29,3.95,13.45-1.25,4.7-4.76,6.8-8.76,7.92-1.07-1.69-1.83-3.61-2.18-5.71Zm17.84,12.71c-1.42,.24-2.83,.28-4.19,.13-4.4-.46-8.37-2.8-10.92-6.32l25.08-7.19c.36-.1,.27-.45-.03-.43l-10.51,.73c1.48-1.43,2.61-3.18,2.47-5.61-.28-3.93-4.27-7.76-11.71-10.28,1.43-.76,3-1.3,4.68-1.59,1.42-.24,2.83-.28,4.19-.13,6.75,.71,12.47,5.82,13.65,12.84,1.42,8.43-4.27,16.42-12.71,17.84Z"></path>
      <g>
        <g>
          <polygon class="cls-1" points="117.82 14.47 117.82 9.07 112.4 9.07 112.4 14.47 109.43 14.47 109.43 1.61 112.4 1.61 112.4 6.73 117.82 6.73 117.82 1.61 120.81 1.61 120.81 14.47 117.82 14.47"></polygon>
          <path class="cls-1" d="M53.78,1.61V9.66c0,.89,.13,1.66,.39,2.29,.26,.62,.63,1.14,1.11,1.53,.48,.4,1.06,.7,1.73,.88,.67,.19,1.44,.28,2.26,.28s1.58-.09,2.24-.28c.65-.18,1.2-.48,1.65-.87,.44-.4,.79-.91,1.04-1.54,.24-.62,.37-1.39,.37-2.29V1.61h-2.78v7.97c0,.81-.2,1.47-.6,1.95-.41,.49-1.05,.74-1.92,.74s-1.49-.25-1.9-.74c-.41-.48-.61-1.14-.61-1.95V1.61h-2.97Z"></path>
          <path class="cls-1" d="M45.21,14.47V4.01h-3.49V1.61h9.98v1.15c0,.69-.56,1.25-1.25,1.25h-2.27V14.47h-2.97Z"></path>
          <rect class="cls-1" x="92.97" y="1.61" width="2.97" height="12.86"></rect>
          <path class="cls-1" d="M83.07,8.47l.1,.13,3.8,4.89c.48,.62,1.21,.98,2,.98h2.37l-5.44-6.92-.08-.1,.08-.1,4.47-5.75h-3.09l-4.1,5.54-.1,.13v-.23s0-5.44,0-5.44h-2.97V14.46h2.97v-5.99Z"></path>
          <path class="cls-1" d="M76.22,14.47c-.88,0-1.71-.47-2.17-1.22l-2.31-3.82h-1.47v5.04h-2.97V1.61h5.3c1.36,0,2.43,.36,3.17,1.06,.74,.7,1.11,1.66,1.11,2.84,0,.6-.16,1.21-.48,1.82-.31,.59-.87,1.08-1.65,1.44l-.17,.08,3.61,5.62h-1.97Zm-5.94-6.97h1.73c.62,0,1.1-.17,1.41-.51,.31-.33,.47-.77,.47-1.29s-.15-.97-.46-1.31c-.31-.34-.79-.51-1.42-.51h-1.73v3.61Z"></path>
          <path class="cls-1" d="M98.38,13.92v-2.47c.95,.43,2.16,.87,3.43,.87,1.45,0,2.19-.5,2.19-1.45,0-1.12-.99-1.24-2.96-2.09-1.34-.6-2.63-1.53-2.63-3.69,0-2.51,1.91-3.69,4.56-3.69,1.41,0,2.61,.33,3.28,.58v2.4c-.67-.31-1.87-.68-3.07-.68-1.3,0-1.91,.48-1.91,1.31,0,.87,.74,1.14,2.06,1.64,1.7,.85,3.68,1.22,3.68,4.12,0,2.51-2,3.87-4.67,3.87-1.64,0-2.94-.29-3.95-.73Z"></path>
        </g>
        <g>
          <path class="cls-1" d="M103.02,31.25v-12.86h8.05v1.17c0,.68-.55,1.23-1.23,1.23h-3.85v2.77h4.32v2.15h-4.32v3.15h5.08v2.4h-8.05Z"></path>
          <path class="cls-1" d="M73.64,31.25v-12.86h1.44c.84,0,1.53,.69,1.53,1.53v9.02h4.74v2.32h-7.72Z"></path>
          <rect class="cls-1" x="55.24" y="18.4" width="2.97" height="12.85"></rect>
          <path class="cls-1" d="M69.85,31.25c-.88,0-1.71-.47-2.17-1.22l-2.31-3.82h-1.47v5.04h-2.97v-12.86h5.3c1.36,0,2.43,.36,3.17,1.06,.74,.7,1.11,1.66,1.11,2.84,0,.6-.16,1.21-.48,1.82-.31,.59-.87,1.08-1.65,1.44l-.17,.08,3.61,5.62h-1.97Zm-5.94-6.97h1.73c.62,0,1.1-.17,1.41-.51,.31-.33,.47-.77,.47-1.29s-.15-.97-.46-1.31c-.31-.34-.79-.51-1.42-.51h-1.73v3.61Z"></path>
          <path class="cls-1" d="M48.7,18.39h-3.41l-4.85,12.86h2.14c.54,0,1.02-.35,1.19-.86l.5-1.51h5.22l.76,2.37h3.22l-4.77-12.86Zm-3.67,8.18l1.17-3.25c.26-.73,.52-1.5,.69-2.07h.04c.15,.59,.41,1.32,.67,2.07l1.12,3.25h-3.7Z"></path>
          <path class="cls-1" d="M113.46,30.71v-2.47c.95,.43,2.16,.87,3.43,.87,1.45,0,2.19-.5,2.19-1.45,0-1.12-.99-1.24-2.96-2.09-1.35-.6-2.63-1.53-2.63-3.69,0-2.51,1.91-3.69,4.56-3.69,1.41,0,2.61,.33,3.28,.58v2.4c-.67-.31-1.87-.68-3.07-.68-1.3,0-1.91,.48-1.91,1.31,0,.87,.74,1.14,2.06,1.64,1.7,.85,3.68,1.22,3.68,4.12,0,2.51-2,3.87-4.67,3.87-1.64,0-2.94-.29-3.95-.73Z"></path>
          <path class="cls-1" d="M88.96,18.39h1.84c.87,0,1.69,.45,2.15,1.19l3.59,5.76c.41,.64,.88,1.49,1.15,2.08h.06c-.04-.58-.06-1.38-.06-1.96v-7.08h2.6v12.86h-3.26l-4.36-6.96c-.41-.64-.83-1.4-1.13-1.98h-.04c.02,.56,.06,1.22,.06,1.84v7.1h-2.6v-12.86Z"></path>
          <rect class="cls-1" x="83.27" y="18.4" width="2.97" height="12.85"></rect>
        </g>
      </g>
    </g>
  </g>
</svg>
